<svg xmlns="http://www.w3.org/2000/svg" viewBox="0 0 48 48" fill="none">
  <rect width="48" height="48" fill="#ffffff"/>
  <path d="M14 8.5h14.2L36 16.3V39.5c0 1.1-.9 2-2 2H14c-1.1 0-2-.9-2-2V10.5c0-1.1.9-2 2-2Z" stroke="#14344a" stroke-width="2.4" stroke-linejoin="round" fill="none"/>
  <path d="M28.2 8.5V14c0 1.2 1 2.2 2.2 2.2H36" stroke="#14344a" stroke-width="2.4" stroke-linejoin="round" fill="none"/>
  <path d="M9.5 36.5c4.5-1.5 7.2-6.2 9.2-11.2 1.8-4.5 4.8-9.2 9.8-9.8 3.2-.4 5.6 1.4 7.8 3.6" stroke="#2eb8c9" stroke-width="2.8" stroke-linecap="round" fill="none"/>
  <path d="M16.5 28.5c2.8-3.8 5.6-5.6 9.2-5.2" stroke="#2eb8c9" stroke-width="2.6" stroke-linecap="round" fill="none"/>
  <path d="M32.2 15.8l6.2 2.4-2.8 5.8" stroke="#2eb8c9" stroke-width="2.8" stroke-linecap="round" stroke-linejoin="round" fill="none"/>
</svg>
